<?xml version="1.0" standalone="no"?>
<!DOCTYPE svg PUBLIC "-//W3C//DTD SVG 1.1//EN" "http://www.w3.org/Graphics/SVG/1.1/DTD/svg11.dtd" >
<svg xmlns="http://www.w3.org/2000/svg">
<metadata>Generated by IcoMoon</metadata>
<defs>
<font id="icon-ui" horiz-adv-x="512">
<font-face units-per-em="512" ascent="480" descent="-32" />
<missing-glyph horiz-adv-x="512" />
<glyph unicode="&#x20;" d="" horiz-adv-x="256" />
<glyph unicode="&#xe600;" d="M305.544 224l206.456 206.456-49.544 49.544-206.456-206.456-206.456 206.456-49.544-49.544 206.456-206.456-206.456-206.456 49.544-49.544 206.456 206.456 206.456-206.456 49.544 49.544-202.327 202.327z" />
<glyph unicode="&#xe601;" d="M256 480c-141.382 0-256-114.618-256-256s114.618-256 256-256 256 114.618 256 256-114.618 256-256 256zM356.026 152.526l-28.579-28.565-71.447 71.46-71.454-71.46-28.572 28.565 71.447 71.474-71.447 71.467 28.572 28.572 71.454-71.46 71.447 71.46 28.579-28.572-71.447-71.467 71.447-71.474z" />
<glyph unicode="&#xe602;" d="M458.105 480h-404.21c-29.645 0-53.895-24.25-53.895-53.895v-404.211c0-29.644 24.25-53.894 53.895-53.894h404.211c29.644 0 53.894 24.25 53.894 53.895v404.21c0 29.645-24.25 53.895-53.895 53.895zM375.092 133.486l-28.578-28.578-90.514 90.513-90.514-90.513-28.578 28.578 90.5 90.514-90.5 90.513 28.578 28.579 90.514-90.513 90.514 90.513 28.578-28.579-90.5-90.513 90.5-90.514z" />
<glyph unicode="&#xe603;" d="M256-32l-72 184-184 72 512 256z" />
<glyph unicode="&#xe604;" d="M442.606 59.080h-373.211c-38.265 0-69.395 31.131-69.395 69.395v97.269c0 8.561 6.939 15.5 15.5 15.5s15.5-6.939 15.5-15.5v-97.269c0-21.17 17.224-38.395 38.395-38.395h373.211c21.17 0 38.394 17.225 38.394 38.395v97.269c0 8.561 6.939 15.5 15.5 15.5s15.5-6.939 15.5-15.5v-97.269c0-38.264-31.13-69.395-69.394-69.395zM256 241.242l-119.092 119.1 28.579 28.578 90.513-90.521 90.514 90.521 28.578-28.578z" />
<glyph unicode="&#xe605;" d="M0.312-31.681l128.854 5.986-122.871 122.867zM-0.009-32l6.031 129.875 123.846-123.841-129.877-6.034zM6.566 96.47l-5.935-127.83 127.833 5.938-121.898 121.892zM35.265 126.127l278.192 278.193 122.87-122.855-278.206-278.19zM158.121 2.844l-123.287 123.283 278.623 278.623 123.301-123.285-278.637-278.621zM35.695 126.127l122.426-122.422 277.775 277.76-122.439 122.425-277.762-277.763zM465.326 310.333l31.445 31.387c19.886 19.946 19.886 52.483 0 72.412l-50.574 50.589c-19.886 19.946-52.469 19.946-72.368 0.117l-31.459-31.546 122.956-122.959zM465.326 309.903l-123.387 123.389 31.674 31.762c9.673 9.638 22.581 14.946 36.347 14.946 13.822 0 26.768-5.35 36.452-15.064l50.574-50.588c20.030-20.075 20.030-52.751 0.001-72.843l-31.661-31.602zM342.801 433.292l122.525-122.528 31.23 31.171c19.793 19.853 19.793 52.144 0 71.982l-50.575 50.589c-9.569 9.599-22.362 14.885-36.021 14.885-13.604 0-26.358-5.244-35.916-14.768l-31.243-31.331z" />
<glyph unicode="&#xe606;" d="M0 480h220.5v-220.5h-220.5v220.5zM291.5 480h220.5v-220.5h-220.5v220.5zM0 188.5h220.5v-220.5h-220.5v220.5zM291.5 188.5h220.5v-220.5h-220.5v220.5z" />
<glyph unicode="&#xe607;" d="M307.066-32v102.15h-102.122v-102.15h102.122zM298.041 158.785c4.3 10.22 15.47 23.74 33.46 40.59 34.79 32.478 57.495 58.172 68.095 77.029 10.605 18.891 15.896 38.896 15.896 60.038 0 38.188-14.425 71.665-43.345 100.423-28.951 28.76-67.821 43.135-116.744 43.135-46.482 0-84.039-14.218-112.622-42.623-23.114-22.953-37.63-49.888-43.515-80.83-1.397-7.375-2.322-14.987-2.758-22.822l78.268-10.91c5.452 28.385 15.413 49.545 29.992 63.415 14.553 13.873 32.63 20.8 54.258 20.8 22.465 0 40.26-6.666 53.524-19.928 13.215-13.3 19.885-29.295 19.885-47.917 0-36.902-30.96-58.79-55.784-81.487-24.902-22.763-41.457-43.208-49.752-61.383-8.293-18.215-12.428-41.405-12.428-69.604 0-2.729 0.093-10.355 0.295-22.836h77.329c-0.394 26.355 1.561 44.645 5.946 54.91z" />
<glyph unicode="&#xe608;" d="M317.882 66.771h36.548c-30.874-65.853-74.075-98.771-129.541-98.771-22.437 0-39.326 4.711-50.659 14.104-11.348 9.423-17.007 23.407-17.007 41.985 0 10.859 4.719 29.911 14.111 57.186l43.422 124.829c3.378 9.659 5.066 15.926 5.066 18.822s-0.659 5.008-1.993 6.326c-1.318 1.318-3.444 1.985-6.325 1.985-12.304 0-26.793-15.682-43.43-47.029h-34.74c31.125 67.296 75.029 100.948 131.703 100.948 20.044 0 35.615-4.889 46.71-14.652 11.067-9.792 16.638-23.229 16.638-40.355 0-12.549-4.948-32.445-14.845-59.704l-41.985-114.341c-6.028-16.147-9.036-26.296-9.036-30.399 0-2.652 0.771-4.711 2.355-6.134 1.585-1.481 3.808-2.207 6.682-2.207 6.282 0 14.296 5.437 24.060 16.296 9.777 10.873 17.213 21.229 22.266 31.111zM378.666 423.548c0-15.444-5.54-28.696-16.651-39.785-11.082-11.112-24.355-16.645-39.793-16.645s-28.711 5.533-39.807 16.645c-11.097 11.088-16.638 24.341-16.638 39.785 0 15.689 5.526 29.007 16.638 39.993 11.096 10.985 24.37 16.459 39.807 16.459s28.711-5.489 39.793-16.459c11.111-10.971 16.651-24.304 16.651-39.993z" />
<glyph unicode="&#xe609;" d="M256 480c-141.387 0-256-114.628-256-256.016 0-141.371 114.613-255.984 256-255.984 141.403 0 256 114.613 256 255.984 0 141.388-114.597 256.016-256 256.016zM296.115 129.773c-19.308-28.993-38.99-51.362-72.029-51.362-22.589 3.687-31.859 19.87-26.955 36.335l42.537 140.895c1.023 3.438-0.688 7.132-3.843 8.256-3.147 1.118-9.271-2.976-14.613-8.802l-25.729-30.953c-0.687 5.201-0.047 13.777-0.047 17.262 19.323 28.984 51.066 51.893 72.561 51.893 20.495-2.108 30.18-18.44 26.588-36.437l-42.81-141.566c-0.602-3.218 1.125-6.436 3.999-7.436 3.163-1.109 9.786 2.937 15.129 8.778l25.65 30.946c0.718-5.187-0.438-14.325-0.438-17.809zM290.398 313.822c-16.293 0-29.463 11.833-29.463 29.282 0 17.472 13.185 29.305 29.463 29.305 16.262 0 29.43-11.833 29.43-29.305 0-17.464-13.153-29.282-29.43-29.282z" />
<glyph unicode="&#xe60a;" d="M45.085 208.401l127.929 137.875c3.853-1.324 7.985-2.052 12.293-2.052 1.582 0 3.138 0.109 4.669 0.298l120.064-200.706c-4.436-6.128-7.056-13.641-7.056-21.771 0-20.58 16.813-37.325 37.55-37.325s37.571 16.745 37.571 37.325c0 7.71-2.354 14.87-6.383 20.815l96.563 150.367c1.908-0.297 3.864-0.455 5.856-0.455 20.739 0 37.551 16.699 37.551 37.324s-16.811 37.323-37.551 37.323c-20.736 0-37.548-16.698-37.548-37.323 0-7.707 2.349-14.864 6.371-20.808l-96.569-150.377c-1.91 0.298-3.868 0.455-5.862 0.455-1.573 0-3.12-0.107-4.643-0.294l-120.090 200.712c4.435 6.126 7.056 13.637 7.056 21.764 0 20.602-16.834 37.323-37.549 37.323-20.76 0-37.572-16.721-37.572-37.323 0-5.354 1.142-10.439 3.183-15.042l-105.833-114.074v227.568h-45.085v-512.031h511.693v44.771h-466.608v195.661z" />
<glyph unicode="&#xe60b;" d="M145.391 401.708h366.609v-71.083h-366.609v71.083zM0 401.708h71.083v-71.083h-71.083v71.083zM145.391 259.542h366.609v-71.083h-366.609v71.083zM0 259.542h71.083v-71.083h-71.083v71.083zM145.391 117.375h366.609v-71.083h-366.609v71.083zM0 117.375h71.083v-71.083h-71.083v71.083z" />
<glyph unicode="&#xe60c;" d="M512 192.006h-512v63.988h512z" />
<glyph unicode="&#xe60d;" d="M458.105 480h-404.21c-29.645 0-53.895-24.25-53.895-53.895v-404.211c0-29.644 24.25-53.894 53.895-53.894h404.211c29.644 0 53.894 24.25 53.894 53.895v404.21c0 29.645-24.25 53.895-53.895 53.895zM377.264 203.789h-242.528v40.421h242.527v-40.421z" />
<glyph unicode="&#xe60e;" d="M225.788 366.223h-168.4v-340.814h340.828v171.932h56.879v-228.839l-454.593-0.502v0.503h-0.502l0.502 397.72v56.885h225.286v-56.885zM512 480v-227.547h-56.878v113.77l-200.009-198.221-56.885 56.885 199.988 198.22h-113.77v56.893h227.554z" />
<glyph unicode="&#xe60f;" d="M359.18 288.918c-3.48 17.929-7.184 31.531-7.184 31.531-13.003 58.125 5.038 132.538-47.998 132.538-51.806 0 15.66-132.309-73.571-157.4-23.894-3.918-38.434-18.514-38.434-58.745v-160.064c0-90.095 71.647-81.547 160.002-81.547 88.369 0 160.004 24.083 160.004 114.177v106.020c0.001 87.968-67.403 74.187-152.819 73.49zM128.006 288.842h-95.989c-17.679 0-32.017-14.61-32.017-32.63v-228.381c0-18.014 14.324-32.603 32.017-32.603h95.989c17.658 0 32.003 14.589 32.003 32.603v228.395c0.001 18.006-14.344 32.616-32.003 32.616zM80.851 48.628c-14.881 0-26.936 12.001-26.936 26.757 0 14.783 12.055 26.771 26.936 26.771s26.958-11.986 26.958-26.771c-0.001-14.757-12.077-26.757-26.958-26.757z" />
<glyph unicode="&#xe610;" d="M128.5 84.757h143.703v-28.811h-143.703v28.811zM128.5 142.379h205.277v-28.811h-205.277v28.811zM470.938 324.677h-22.438v123.323h-384v-123.323h-23.443c-22.578 0-41.057-18.485-41.057-41.057v-154.558c0-22.592 18.479-41.076 41.057-41.076h23.443v-87.986h384v87.986h22.438c22.577 0 41.063 18.484 41.063 41.076v154.558c-0.014 22.572-18.484 41.057-41.063 41.057zM96.5 416h320v-91.324h-320v91.324zM96.5 32v145.218h320v-145.218h-320zM452.127 239.398c-14.165 0-25.646 11.493-25.646 25.653 0 14.174 11.479 25.675 25.646 25.675 14.181 0 25.659-11.5 25.659-25.675 0-14.16-11.478-25.653-25.659-25.653z" />
<glyph unicode="&#xe611;" d="M402.19 187.258c-0.188-80.56-65.604-145.827-146.187-145.827-80.707 0-146.198 65.458-146.198 146.181 0 80.724 65.491 146.18 146.198 146.18v-74.938l182.837 110.897-182.837 109.936v-72.778c-121.128 0-219.297-98.186-219.297-219.297s98.169-219.298 219.297-219.298c121.042 0 219.153 98.051 219.291 219.043l-73.104-0.099z" />
<glyph unicode="&#xe612;" d="M458.105 480h-404.21c-29.645 0-53.895-24.25-53.895-53.895v-404.211c0-29.644 24.25-53.894 53.895-53.894h404.211c29.644 0 53.894 24.25 53.894 53.895v404.21c0 29.645-24.25 53.895-53.895 53.895zM383.424-5h-254.82c-0.133 0.72-0.212 1.458-0.212 2.216l-0.025 112.392c0 3.215 1.271 6.258 3.579 8.565 2.309 2.311 5.351 3.581 8.565 3.581h230.961c6.699 0 12.151-5.451 12.152-12.151l0.010-112.392c0.001-0.749-0.075-1.487-0.21-2.211zM485 21.895c0-7.125-2.813-13.862-7.923-18.973-5.108-5.107-11.846-7.922-18.971-7.922h-44.641c-0.085 0.762-0.132 1.502-0.132 2.214l-0.010 112.393c-0.003 23.074-18.778 41.848-41.854 41.848h-230.958c-11.149 0-21.65-4.362-29.568-12.282s-12.277-18.422-12.275-29.57l0.025-112.391c0-0.755 0.012-1.49 0.032-2.21h-44.83c-7.126 0-13.864 2.813-18.973 7.923-5.109 5.106-7.922 11.844-7.922 18.969v404.211c0 7.125 2.813 13.864 7.922 18.973s11.847 7.922 18.973 7.922h59.627v-230.461h284.955v230.461h59.629c7.125 0 13.862-2.813 18.972-7.922s7.922-11.848 7.922-18.973v-404.21zM147.88 11.441l27 0.014v83.906h-27z" />
<glyph unicode="&#xe613;" d="M497.924-17.924c-18.797-18.769-49.21-18.769-68.006 0l-84.858 84.857c-34.904-22.359-76.175-35.705-120.678-35.705-123.896 0.001-224.382 100.465-224.382 224.39 0 123.896 100.486 224.382 224.383 224.382 123.925 0 224.389-100.486 224.389-224.382 0-44.502-13.347-85.774-35.705-120.677l84.857-84.858c18.768-18.783 18.768-49.21 0-68.007zM224.383 415.899c-88.52 0-160.281-71.747-160.281-160.281 0-88.52 71.747-160.274 160.281-160.274 88.519 0 160.273 71.755 160.273 160.274 0 88.533-71.755 160.281-160.273 160.281z" />
<glyph unicode="&#xe614;" d="M-0.001 242.252c0-121.276 98.308-219.567 219.566-219.567 121.261 0 219.568 98.291 219.568 219.567h72.866l-110.070 183.062-111.033-183.062h75.030c0-80.807-65.536-146.377-146.361-146.377-80.822 0-146.36 65.57-146.36 146.377h-73.206z" />
<glyph unicode="&#xe615;" d="M512 479.984h-0.154v0.032l-511.846-0.032v-512.016h0.153v-0.001l511.847 0.017v512zM200.673 168.497v110.989h110.501v-110.989h-110.501zM311.174 123.727v-110.987h-110.501v110.987h110.501zM155.587 168.497h-110.501v110.989h110.501v-110.989zM356.26 279.486h110.654v-110.989h-110.654v110.989zM356.26 324.256v110.99h110.654v-110.99h-110.654zM311.174 324.256h-110.501v110.99h110.501v-110.99zM155.587 324.256h-110.501v110.99h110.501v-110.99zM155.587 123.727v-110.987h-110.501v110.987h110.501zM466.914 12.739h-110.654v110.988h110.654v-110.988z" />
<glyph unicode="&#xe616;" d="M69.394 388.919h373.212c38.263 0 69.394-31.13 69.394-69.394v-97.268c0-8.562-6.939-15.5-15.5-15.5s-15.5 6.938-15.5 15.5v97.268c0 21.17-17.225 38.394-38.395 38.394h-373.211c-21.17 0-38.394-17.224-38.394-38.395v-97.267c0-8.562-6.939-15.5-15.5-15.5s-15.5 6.94-15.5 15.501v97.267c0 38.265 31.13 69.394 69.394 69.394zM256 206.758l119.092-119.1-28.578-28.578-90.514 90.521-90.514-90.521-28.578 28.578z" />
<glyph unicode="&#xe617;" d="M273.541 232.741l-125.083 75.263c-3.241 1.951-7.374 2.003-10.665 0.143-3.293-1.859-5.943-5.108-5.943-8.886v-150.521c0-3.78 2.65-7.030 5.943-8.883 3.291-1.863 7.8-1.814 11.041 0.137l124.898 75.265c3.149 1.896 4.843 5.060 4.843 8.741 0 3.679-1.884 6.845-5.034 8.741zM512 385l-101.572-68.473v14.578c-0.002 29.645-24.254 53.895-53.897 53.895h-302.635c-29.646 0-53.896-24.25-53.896-53.895v-214.21c0-29.644 24.25-53.895 53.896-53.895h302.637c29.643 0 53.895 24.251 53.895 53.895v14.578l101.572-68.473v322zM383.475 116.895c0-14.866-12.076-26.944-26.943-26.944h-302.636c-14.862 0-26.947 12.078-26.947 26.944v214.21c0 14.862 12.085 26.947 26.947 26.947l302.635 0.001c14.867 0 26.943-12.085 26.943-26.947v-214.211zM485 117.282l-74.523 45.788v121.86l74.523 45.787v-213.435z" />
<glyph unicode="&#xe618;" d="M98.004 480h-98.004v-224.005h63.987v160.018h160.018v63.987h-98zM413.998 416.011h34.012v-160.017h63.988v224.005l-224.005 0.001v-63.989h98.006zM448.011 192.006l0.001-98.005-0.001-28v-34.012h-160.017l-0.001-63.988h224.006l0.001 63.988v160.017zM98 31.989h-34.013v160.017l-63.987 0.001v-224.006l224.005-0.001v63.989l-98.005-0.001z" />
<glyph unicode="&#xe619;" d="M126 255.995h98.005v224.005h-63.987v-160.018h-160.018v-63.987h98zM385.993 319.981h-34.012v160.018l-63.988 0.001v-224.006h224.005v63.987h-98.006zM351.982-31.999l-0.001 98.006 0.001 28v34.012h160.017l0.001 63.987h-224.006l-0.001-63.987v-160.018zM126.005 128.019h34.013v-160.018l63.987-0.001v224.006l-224.005 0.001v-63.988h98.005z" />
<glyph unicode="&#xe61a;" d="M458.105 453.053c14.866 0 26.945-12.085 26.945-26.947v-404.211c0-14.866-12.079-26.945-26.945-26.945h-404.21c-14.862 0-26.947 12.079-26.947 26.945v404.21c0 14.862 12.085 26.947 26.947 26.947l404.21 0.001zM458.105 480h-404.21c-29.645 0-53.895-24.25-53.895-53.895v-404.211c0-29.643 24.25-53.894 53.895-53.894h404.211c29.643 0 53.894 24.251 53.894 53.895v404.21c0 29.645-24.251 53.895-53.895 53.895v0zM266.523 229.244l-75.049 45.158c-1.944 1.171-4.423 1.201-6.398 0.086s-3.565-3.065-3.565-5.332v-90.313c0-2.267 1.589-4.218 3.565-5.328 1.975-1.119 4.68-1.090 6.624 0.082l74.94 45.157c1.889 1.138 2.904 3.036 2.904 5.245 0.001 2.208-1.129 4.107-3.021 5.245zM409.6 320.6l-60.943-41.084v8.747c-0.001 17.787-14.553 32.337-32.338 32.337h-181.581c-17.788 0-32.338-14.55-32.338-32.337v-128.527c0-17.785 14.55-32.336 32.338-32.336h181.582c17.785 0 32.336 14.551 32.336 32.336v8.748l60.944-41.084v193.2zM332.484 159.736c0-8.918-7.245-16.166-16.166-16.166h-181.58c-8.918 0-16.169 7.248-16.169 16.166v128.527c0 8.917 7.251 16.168 16.169 16.168l181.581 0.001c8.921 0 16.166-7.251 16.166-16.168v-128.528zM393.4 159.971l-44.716 27.473v73.114l44.716 27.472v-128.059z" />
<glyph unicode="&#xe61b;" d="M43.001 480v-512h142v512h-71zM397.999 480h-71v-512h142v512z" />
<glyph unicode="&#xe61c;" d="M43.001-32v512l425.998-256.001z" />
<glyph unicode="&#xe61d;" d="M311.211 311.668l-29.233-29.232c15.058-14.909 24.385-35.58 24.385-58.439 0-22.85-9.327-43.532-24.385-58.434l29.233-29.23c22.419 22.449 36.282 53.436 36.282 87.666 0 34.233-13.862 65.216-36.282 87.669zM429.748 223.998c0 56.928-23.142 108.454-60.513 145.687l-28.94-28.939c29.858-29.889 48.322-71.159 48.322-116.748 0-45.585-18.464-86.853-48.322-116.75l28.94-28.938c37.371 37.231 60.513 88.758 60.513 145.688zM512 223.998c0 79.648-32.347 151.733-84.602 203.855l-29.085-29.085c44.822-44.678 72.556-106.483 72.556-174.771 0-68.285-27.733-130.089-72.556-174.765l29.085-29.086c52.254 52.116 84.602 124.208 84.602 203.852zM0 141.754h111.049l113.171-109.014v382.519l-111.048-109.019h-113.172z" />
<glyph unicode="&#xe61e;" d="M256 408.888c-141.392 0-256-184.355-256-184.355s114.608-185.42 256-185.42c141.384 0 256 185.42 256 185.42s-114.616 184.355-256 184.355zM256 123.386c-56.559 0-102.38 45.283-102.38 101.147 0 55.836 45.821 101.133 102.38 101.133 56.537 0 102.395-45.297 102.395-101.133 0-55.864-45.858-101.147-102.395-101.147zM256 284.801c-33.696 0-61.040-26.986-61.040-60.27 0-33.308 27.344-60.276 61.040-60.276 33.734 0 61.053 26.968 61.053 60.276 0 33.284-27.319 60.27-61.053 60.27z" />
<glyph unicode="&#xe61f;" d="M478.816 362.271l-95.453 95.978c-11.88 11.962-35.474 21.751-52.31 21.751h-124.806c12.83-8.019 25.622-18.31 38.123-30.679h86.159c-0.060-0.906-0.254-1.61-0.254-2.592v-103.633c0-18.306 14.965-33.278 33.256-33.278h103.634c0.943 0 1.707 0.143 2.576 0.202 0-0.060 0.029-0.135 0.029-0.202v-311.108h-319.259v275.99c-3.656-0.389-7.301-0.587-10.93-0.587-6.546 0-13.142 0.647-19.765 1.907v-277.34c0-16.867 13.812-30.68 30.679-30.68h319.243c16.896 0 30.68 13.813 30.68 30.68v311.153c0.031 16.875-9.707 40.469-21.602 52.438zM187.063 167.125h218.561v-30.682h-218.561v30.682zM187.063 229.517h218.561v-30.957h-218.561v30.957zM187.063 104.867h161.037v-30.68h-161.037v30.68zM170.107 387.821c0 16.642-13.659 30.135-30.526 30.135-16.848 0-30.52-13.493-30.52-30.135 0-16.654 13.672-30.138 30.52-30.138 16.867 0 30.526 13.484 30.526 30.138zM267.581 387.822c0 0-57.309 92.178-128 92.178-70.696 0-128-92.178-128-92.178s57.304-92.709 128-92.709c70.691 0 128 92.709 128 92.709zM88.392 387.822c0 27.918 22.91 50.566 51.19 50.566 28.269 0 51.197-22.648 51.197-50.566 0-27.932-22.929-50.574-51.197-50.574-28.281 0.001-51.19 22.642-51.19 50.574z" />
<glyph unicode="&#xe62e;" d="M512 193h-224v-224h-64v224h-224v64h224v224h64v-224h224z" />
<glyph unicode="&#xe62f;" d="M256 480c-141.382 0-256-114.618-256-256s114.618-256 256-256 256 114.618 256 256-114.618 256-256 256zM363.789 203.789h-87.578v-87.578h-40.422v87.578h-87.578v40.422h87.578v87.579h40.422v-87.579h87.578v-40.422z" />
<glyph unicode="&#xe630;" d="M458.096 481h-404.203c-29.644 0-53.893-24.255-53.893-53.898v-404.209c0-29.644 24.249-53.893 53.893-53.893h404.203c29.656 0 53.904 24.249 53.904 53.893v404.209c0 29.643-24.248 53.898-53.904 53.898zM377.258 204.791h-101.049v-101.048h-40.418v101.048h-101.061v40.418h101.061v101.055h40.418v-101.054h101.049v-40.419z" />
<glyph unicode="&#xe631;" d="M256 71.217l256 256.022-49.544 49.544-206.456-206.478-206.456 206.478-49.544-49.544z" />
<glyph unicode="&#xe632;" d="M458.105 480h-404.21c-29.645 0-53.895-24.25-53.895-53.895v-404.211c0-29.644 24.25-53.894 53.895-53.894h404.211c29.644 0 53.894 24.25 53.894 53.895v404.21c0 29.645-24.25 53.895-53.895 53.895zM256 150.158l-119.092 119.099 28.578 28.579 90.514-90.52 90.514 90.52 28.578-28.579-119.092-119.099z" />
<glyph unicode="&#xe633;" d="M103.217 224l256.023-256 49.543 49.544-206.478 206.456 206.478 206.456-49.543 49.544z" />
<glyph unicode="&#xe634;" d="M512 21.895v404.21c0 29.645-24.25 53.895-53.895 53.895h-404.21c-29.645 0-53.895-24.25-53.895-53.895v-404.211c0-29.644 24.25-53.894 53.895-53.894h404.211c29.644 0 53.894 24.25 53.894 53.895zM182.164 224l119.1 119.092 28.578-28.579-90.52-90.513 90.52-90.514-28.578-28.578-119.1 119.092z" />
<glyph unicode="&#xe635;" d="M408.783 224l-256.021 256-49.545-49.544 206.478-206.456-206.478-206.455 49.545-49.545z" />
<glyph unicode="&#xe636;" d="M0 426.105v-404.211c0-29.658 24.25-53.908 53.895-53.894h404.211c29.645 0 53.895 24.264 53.881 53.895l0.013 404.21c0 29.645-24.25 53.895-53.895 53.895h-404.21c-29.645 0-53.895-24.25-53.895-53.895zM329.842 224l-119.099-119.105-28.592 28.592 90.534 90.513-90.521 90.5 28.579 28.579 119.099-119.079z" />
<glyph unicode="&#xe637;" d="M256 376.783l-256-256.021 49.544-49.545 206.456 206.478 206.455-206.478 49.545 49.545z" />
<glyph unicode="&#xe638;" d="M53.895-32h404.211c29.658 0 53.908 24.25 53.895 53.895v404.21c-0.001 29.645-24.265 53.895-53.896 53.882l-404.21 0.013c-29.645 0-53.895-24.25-53.895-53.895v-404.211c0-29.644 24.25-53.894 53.895-53.894zM256 297.842l119.105-119.105-28.592-28.578-90.513 90.526-90.5-90.526-28.579 28.578 119.079 119.105z" />
<glyph unicode="&#xe639;" d="M273.079 104.539l34.118 375.461h-102.394l34.112-375.461h34.164zM307.197-32v102.421h-102.394v-102.421h102.394z" />
<glyph unicode="&#xe63a;" d="M458.105 480h-404.21c-29.645 0-53.895-24.25-53.895-53.895v-404.211c0-29.644 24.25-53.894 53.895-53.894h404.211c29.644 0 53.894 24.25 53.894 53.895v404.21c0 29.645-24.25 53.895-53.895 53.895zM292.211 56.395h-72.415v72.447h72.415v-72.447zM268.079 152.974h-24.19l-24.105 225.165h72.428l-24.133-225.165z" />
<glyph unicode="&#xe63b;" d="M458.105 453.053c14.868 0 26.947-12.085 26.947-26.947v-404.211c0-14.868-12.079-26.947-26.947-26.947h-404.21c-14.862 0-26.947 12.079-26.947 26.947v404.21c0 14.862 12.085 26.947 26.947 26.947h404.21zM458.105 480h-404.21c-29.645 0-53.895-24.25-53.895-53.895v-404.211c0-29.643 24.25-53.894 53.895-53.894h404.211c29.643 0 53.894 24.251 53.894 53.895v404.21c0 29.645-24.251 53.895-53.895 53.895v0zM219.783 128.842h72.428v-72.447h-72.428v72.447zM268.079 152.974h-24.178l-24.118 225.164h72.428z" />
<glyph unicode="&#xe63c;" d="M45.085 12.739v467.261h-45.085v-512.031h511.693v44.77zM466.564 220.779h-60.134c-16.63 0-30.102-13.381-30.102-29.908v-149.434h120.336v149.434c0.001 16.527-13.447 29.908-30.1 29.908zM346.206 280.632c0 16.528-13.427 29.909-30.101 29.909h-60.157c-16.607 0-30.056-13.381-30.056-29.909v-239.192h120.313l0.001 239.192zM195.792 370.404c0 16.518-13.471 29.887-30.101 29.887h-60.157c-16.63 0-30.078-13.369-30.078-29.887v-328.966h120.336v328.966z" />
<glyph unicode="&#xe63d;" d="M23.074 8.502c0-22.39 18.142-40.502 40.518-40.502h384.83c22.363 0 40.503 18.112 40.503 40.502v324.056h-465.851v-324.056zM367.39 292.048h81.033v-81.005h-81.033v81.005zM367.39 190.794h81.033v-81.063h-81.033v81.063zM367.39 89.507h81.033v-81.005h-81.033v81.005zM266.133 292.048h81.034v-81.005h-81.034v81.005zM266.133 190.794h81.034v-81.063h-81.034v81.063zM266.133 89.507h81.034v-81.005h-81.034v81.005zM164.862 292.048h80.99v-81.005h-80.99v81.005zM164.862 190.794h80.99v-81.063h-80.99v81.063zM164.862 89.507h80.99v-81.005h-80.99v81.005zM63.592 292.048h81.005v-81.005h-81.005v81.005zM63.592 190.794h81.005v-81.063h-81.005v81.063zM63.592 89.507h81.005v-81.005h-81.005v81.005zM448.422 419.232h-54.507v-12.957c-0.114-19.174-15.73-34.784-34.883-34.784h-3.48c-19.195 0-34.854 15.624-34.854 34.841v5.933l-0.057 0.363v6.604h-129.238v-12.957c-0.114-19.174-15.745-34.784-34.884-34.784h-3.466c-19.225 0-34.869 15.624-34.869 34.84v5.826l-0.057 0.414v6.661h-54.534c-22.377 0-40.518-18.141-40.518-40.517v-25.87h465.851v25.87c0 22.362-18.141 40.517-40.504 40.517zM132.788 406.318c0-11.174 9.099-20.237 20.266-20.237h3.466c11.195 0 20.223 9.063 20.279 20.251l-0.057 53.423c0 11.175-9.097 20.245-20.28 20.245h-3.479c-11.181 0-20.194-9.070-20.251-20.258l0.056-53.424zM335.302 406.318c0-11.174 9.099-20.237 20.25-20.237h3.48c11.181 0 20.223 9.063 20.279 20.251l-0.057 53.423c0.001 11.175-9.098 20.245-20.279 20.245h-3.479c-11.183 0-20.194-9.070-20.252-20.258l0.058-53.424z" />
<glyph unicode="&#xe63e;" d="M449.195 369.601l-183.607 110.399 0.001-61.61c-0.013 0-0.028 0-0.042 0-40.406-1.44-84.167-7.34-114.562-18.348-34.156-12.27-62.311-28.937-84.624-49.89-17.645-16.629-31.576-35.554-42.025-56.62-2.756-5.547-5.43-11.099-7.686-16.937-10.873-28.023-18.478-58.449-16.267-89.72 0.533-7.717 4.812-30.77 9.779-30.77 0 0 6.19 32.295 31.236 69.3 7.687 11.303 16.626 21.983 26.941 31.83l1.161-0.939v2.029c6.407 6.020 13.215 11.8 20.926 17.017 20.857 14.139 46.391 25.357 76.576 33.637 24.713 6.759 60.927 10.698 92.084 12.164h6.504l-0.001-62.905 183.606 111.363zM62.13 79.28l183.607-110.399-0.001 61.61c0.013 0 0.029 0 0.042 0 40.406 1.439 84.167 7.341 114.562 18.348 34.155 12.271 62.312 28.938 84.623 49.89 17.646 16.629 31.576 35.555 42.025 56.619 2.756 5.549 5.43 11.1 7.686 16.938 10.873 28.022 18.479 58.447 16.269 89.719-0.533 7.718-4.812 30.771-9.779 30.771 0 0-6.191-32.296-31.236-69.299-7.687-11.304-16.627-21.984-26.94-31.83l-1.16 0.938v-2.029c-6.406-6.020-13.215-11.8-20.926-17.018-20.857-14.14-46.392-25.356-76.576-33.638-24.713-6.758-60.928-10.696-92.084-12.162h-6.504l0.001 62.904-183.609-111.362z" />
<glyph unicode="&#xe63f;" d="M329.303 86.148c121.885 15.147 182.697 98.292 182.697 196.345 0 108.783-114.644 196.984-256.009 196.984-141.384 0-255.991-88.201-255.991-196.984 0-88.72 76.21-163.753 180.975-188.419 23.74-5.592 79.59-125.551 221.659-125.551 0 0-86.701 115.997-73.331 117.625z" />
<glyph unicode="&#xe640;" d="M196.931 7.382l-196.931 196.952 78.777 78.75 118.154-118.16 236.32 275.694 78.749-78.77-315.069-354.466z" />
<glyph unicode="&#xe641;" d="M458.105 480h-404.21c-29.645 0-53.895-24.25-53.895-53.895v-404.211c0-29.644 24.25-53.894 53.895-53.894h404.211c29.644 0 53.894 24.25 53.894 53.895v404.21c0 29.645-24.25 53.895-53.895 53.895zM217.868 84.132l-127.164 127.157 50.875 50.842 76.289-76.29 152.579 178.014 50.842-50.849-203.421-228.874z" />
</font>
</defs>
</svg>
